# xmcd CD database file
#
# Track frame offsets:
#	150
#	14917
#	32375
#	51962
#	66835
#	84392
#	102992
#	123042
#	138385
#	149767
#	164290
#	185442
#	200670
#	229007
#
# Disc length: 3294 seconds
#
# Revision: 0
# Processed by: cddbd v1.5.2PL0 Copyright (c) Steve Scherf et al.
# Submitted via: CDex 1.70beta2
#
DISCID=c60cdc0e
DTITLE=Craig Brenner - Play It Again, Professor!
DYEAR=1995
DGENRE=Jazz
TTITLE0=Backstage Boogie
TTITLE1=Beer Drinkin' Woman
TTITLE2=To Boogie Or Not To Boogie
TTITLE3=Baby Let Me Hold Your Hand
TTITLE4=Georgia On My Mind
TTITLE5=Funky Boogie Woogie
TTITLE6=Hey Now Baby
TTITLE7=Big Chief
TTITLE8=Ain't Misbehavin
TTITLE9=A Fool For You
TTITLE10=Low Society
TTITLE11=Blue Moon
TTITLE12=Tune For Grandma
TTITLE13=Meet Me Tomorrow Night
EXTD=YEAR: 1995
EXTT0=
EXTT1=
EXTT2=
EXTT3=
EXTT4=
EXTT5=
EXTT6=
EXTT7=
EXTT8=
EXTT9=
EXTT10=
EXTT11=
EXTT12=
EXTT13=
PLAYORDER=
